<?xml version="1.0" encoding="UTF-8"?>
<!DOCTYPE svg PUBLIC "-//W3C//DTD SVG 1.1//EN" "http://www.w3.org/Graphics/SVG/1.1/DTD/svg11.dtd">
<svg xmlns="http://www.w3.org/2000/svg" version="1.1" width="1082px" height="1022px" style="shape-rendering:geometricPrecision; text-rendering:geometricPrecision; image-rendering:optimizeQuality; fill-rule:evenodd; clip-rule:evenodd" xmlns:xlink="http://www.w3.org/1999/xlink">
<g><path style="opacity:1" fill="#fbfbfb" d="M -0.5,-0.5 C 360.167,-0.5 720.833,-0.5 1081.5,-0.5C 1081.5,340.167 1081.5,680.833 1081.5,1021.5C 720.833,1021.5 360.167,1021.5 -0.5,1021.5C -0.5,680.833 -0.5,340.167 -0.5,-0.5 Z"/></g>
<g><path style="opacity:1" fill="#aaaaaa" d="M 516.5,9.5 C 649.881,7.44798 766.548,49.948 866.5,137C 982.352,244.936 1037.52,378.436 1032,537.5C 1020.07,691.57 953.566,815.737 832.5,910C 707.855,999.397 570.189,1028.4 419.5,997C 296.593,966.512 198.093,900.345 124,798.5C 39.9973,674.556 13.9973,539.223 46,392.5C 83.1748,250.874 165.008,143.707 291.5,71C 361.812,32.8467 436.812,12.3467 516.5,9.5 Z"/></g>
<g><path style="opacity:1" fill="#fbfbfb" d="M 495.5,33.5 C 658.571,25.8695 793.404,83.2028 900,205.5C 996.255,327.369 1028.59,464.702 997,617.5C 962.049,755.319 882.882,859.152 759.5,929C 643.8,989.037 523.134,1001.7 397.5,967C 253.178,921.009 151.011,828.509 91,689.5C 54.6976,597.275 46.6976,502.608 67,405.5C 96.1776,283.394 162.011,186.561 264.5,115C 334.566,68.2552 411.566,41.0885 495.5,33.5 Z"/></g>
<g><path style="opacity:1" fill="#aaaaaa" d="M 504.5,65.5 C 654.118,60.4212 777.618,114.088 875,226.5C 963.894,339.093 994.228,466.093 966,607.5C 934.013,737.096 860.18,834.596 744.5,900C 636.543,956.217 523.876,968.217 406.5,936C 281.428,896.253 189.595,817.753 131,700.5C 84.3888,597.555 76.0554,491.555 106,382.5C 150.38,245.896 238.88,150.063 371.5,95C 414.603,78.9352 458.936,69.1018 504.5,65.5 Z"/></g>
<g><path style="opacity:1" fill="#fbfbfb" d="M 567.5,113.5 C 591.444,152.541 614.777,192.041 637.5,232C 620.341,283.481 597.174,331.981 568,377.5C 553.075,401.02 537.409,424.02 521,446.5C 498.951,474.214 477.284,502.214 456,530.5C 427.83,571.642 408.163,616.642 397,665.5C 390.483,701.717 391.15,737.717 399,773.5C 351.608,723.003 330.608,663.003 336,593.5C 341.201,552.231 354.201,513.564 375,477.5C 383.606,463.231 392.606,449.231 402,435.5C 481.058,341.063 536.225,233.73 567.5,113.5 Z"/></g>
<g><path style="opacity:1" fill="#fbfbfb" d="M 664.5,281.5 C 682.07,313.635 698.903,346.302 715,379.5C 713.253,390.756 710.253,401.756 706,412.5C 689.669,453.829 669.669,493.163 646,530.5C 620.019,571.455 591.353,610.455 560,647.5C 531.667,683.151 510.334,722.817 496,766.5C 486.61,798.587 483.943,831.254 488,864.5C 490.601,878.579 494.268,892.246 499,905.5C 434.86,846.07 411.86,773.404 430,687.5C 442.241,643.687 461.907,603.687 489,567.5C 561.373,481.166 619.873,385.833 664.5,281.5 Z"/></g>
</svg>
